<svg width="70" height="30" viewBox="0 0 70 30" fill="none" xmlns="http://www.w3.org/2000/svg">
<path d="M23.0497 29.5333V22.9879H24.0372V25.8323H27.3004V22.9879H28.2911V29.5333H27.3004V26.6793H24.0372V29.5333H23.0497ZM31.7205 29.6324C31.2603 29.6324 30.8586 29.5269 30.5156 29.316C30.1725 29.1051 29.9062 28.81 29.7166 28.4307C29.5269 28.0514 29.4321 27.6083 29.4321 27.1012C29.4321 26.5919 29.5269 26.1466 29.7166 25.7652C29.9062 25.3838 30.1725 25.0877 30.5156 24.8767C30.8586 24.6658 31.2603 24.5603 31.7205 24.5603C32.1807 24.5603 32.5823 24.6658 32.9254 24.8767C33.2684 25.0877 33.5348 25.3838 33.7244 25.7652C33.914 26.1466 34.0088 26.5919 34.0088 27.1012C34.0088 27.6083 33.914 28.0514 33.7244 28.4307C33.5348 28.81 33.2684 29.1051 32.9254 29.316C32.5823 29.5269 32.1807 29.6324 31.7205 29.6324ZM31.7237 28.8302C32.022 28.8302 32.2691 28.7514 32.4652 28.5937C32.6612 28.436 32.8061 28.2262 32.8998 27.9641C32.9957 27.702 33.0436 27.4133 33.0436 27.098C33.0436 26.7847 32.9957 26.4971 32.8998 26.235C32.8061 25.9708 32.6612 25.7588 32.4652 25.599C32.2691 25.4392 32.022 25.3593 31.7237 25.3593C31.4233 25.3593 31.174 25.4392 30.9758 25.599C30.7798 25.7588 30.6338 25.9708 30.538 26.235C30.4442 26.4971 30.3973 26.7847 30.3973 27.098C30.3973 27.4133 30.4442 27.702 30.538 27.9641C30.6338 28.2262 30.7798 28.436 30.9758 28.5937C31.174 28.7514 31.4233 28.8302 31.7237 28.8302ZM35.0755 29.5333V24.6242H35.9928V25.4232H36.0535C36.1558 25.1526 36.323 24.9417 36.5553 24.7904C36.7875 24.637 37.0656 24.5603 37.3894 24.5603C37.7176 24.5603 37.9924 24.637 38.214 24.7904C38.4377 24.9438 38.6028 25.1548 38.7094 25.4232H38.7605C38.8777 25.1612 39.0641 24.9524 39.3198 24.7968C39.5755 24.6391 39.8802 24.5603 40.2339 24.5603C40.6792 24.5603 41.0425 24.6999 41.3237 24.979C41.6071 25.2581 41.7488 25.6789 41.7488 26.2414V29.5333H40.7932V26.3309C40.7932 25.9985 40.7026 25.7578 40.5215 25.6086C40.3404 25.4595 40.1242 25.3849 39.8727 25.3849C39.5617 25.3849 39.3198 25.4808 39.1472 25.6725C38.9747 25.8622 38.8884 26.1061 38.8884 26.4044V29.5333H37.9359V26.2702C37.9359 26.0039 37.8528 25.7897 37.6867 25.6278C37.5205 25.4659 37.3042 25.3849 37.0379 25.3849C36.8568 25.3849 36.6895 25.4328 36.5361 25.5287C36.3848 25.6225 36.2623 25.7535 36.1685 25.9218C36.0769 26.0901 36.0311 26.2851 36.0311 26.5067V29.5333H35.0755ZM45.1454 29.6324C44.6617 29.6324 44.2452 29.5291 43.8957 29.3224C43.5484 29.1136 43.28 28.8206 43.0903 28.4435C42.9028 28.0642 42.8091 27.62 42.8091 27.1107C42.8091 26.6079 42.9028 26.1647 43.0903 25.7812C43.28 25.3977 43.5442 25.0983 43.8829 24.8831C44.2239 24.6679 44.6223 24.5603 45.0783 24.5603C45.3552 24.5603 45.6237 24.6061 45.8837 24.6977C46.1436 24.7894 46.3769 24.9332 46.5836 25.1292C46.7903 25.3252 46.9533 25.5798 47.0726 25.8931C47.1919 26.2041 47.2516 26.5823 47.2516 27.0276V27.3664H43.3492V26.6505H46.3151C46.3151 26.3991 46.264 26.1764 46.1617 25.9825C46.0594 25.7865 45.9156 25.632 45.7302 25.5191C45.547 25.4062 45.3318 25.3497 45.0847 25.3497C44.8162 25.3497 44.5818 25.4158 44.3815 25.5479C44.1834 25.6779 44.03 25.8483 43.9213 26.0592C43.8148 26.2681 43.7615 26.495 43.7615 26.74V27.2993C43.7615 27.6274 43.819 27.9065 43.9341 28.1367C44.0513 28.3668 44.2143 28.5426 44.4231 28.664C44.6319 28.7833 44.8758 28.843 45.155 28.843C45.3361 28.843 45.5012 28.8174 45.6503 28.7663C45.7995 28.713 45.9284 28.6342 46.0371 28.5298C46.1457 28.4254 46.2288 28.2965 46.2864 28.1431L47.1908 28.3061C47.1184 28.5724 46.9884 28.8057 46.8009 29.006C46.6155 29.2041 46.3822 29.3586 46.101 29.4694C45.8219 29.5781 45.5033 29.6324 45.1454 29.6324Z" fill="white"/>
<path d="M43.1926 7.53333L34.8963 1L26.6 7.53333V17.8H32.8222V12.2H36.9703V17.8H43.1926V7.53333Z" fill="#D9D9D9"/>
</svg>
