<svg width="70" height="30" viewBox="0 0 70 30" fill="none" xmlns="http://www.w3.org/2000/svg">
<g clip-path="url(#clip0_106_4)">
<rect x="24.5" y="9.5" width="19" height="10" stroke="white"/>
<line x1="24" y1="8.5" x2="37" y2="8.5" stroke="white"/>
<line x1="26" y1="5.5" x2="37" y2="5.5" stroke="white"/>
<line x1="29" y1="2.5" x2="37" y2="2.5" stroke="white"/>
<circle cx="42" cy="6" r="4" fill="white"/>
<path d="M32.6696 11.9587L37.2933 14.6283L32.6696 17.2978L32.6696 11.9587Z" fill="white"/>
<path d="M34.4196 5.97427L40.3424 9.39382L34.4196 12.8134L34.4196 5.97427Z" fill="white"/>
<rect x="29.5" y="2.5" width="14" height="14" stroke="white"/>
<path d="M26 5V20H41" stroke="white"/>
<path d="M20.1239 30V23.4545H21.1115V29.1499H24.0774V30H20.1239ZM25.1273 30V25.0909H26.0829V30H25.1273ZM25.6099 24.3335C25.4437 24.3335 25.3009 24.2781 25.1816 24.1673C25.0644 24.0543 25.0058 23.9201 25.0058 23.7646C25.0058 23.6069 25.0644 23.4727 25.1816 23.3619C25.3009 23.2489 25.4437 23.1925 25.6099 23.1925C25.7761 23.1925 25.9177 23.2489 26.0349 23.3619C26.1543 23.4727 26.2139 23.6069 26.2139 23.7646C26.2139 23.9201 26.1543 24.0543 26.0349 24.1673C25.9177 24.2781 25.7761 24.3335 25.6099 24.3335ZM27.4452 30V23.4545H28.4008V25.8867H28.4583C28.5137 25.7844 28.5936 25.6662 28.698 25.532C28.8024 25.3977 28.9473 25.2805 29.1327 25.1804C29.318 25.0781 29.5631 25.027 29.8678 25.027C30.2641 25.027 30.6178 25.1271 30.9288 25.3274C31.2399 25.5277 31.4839 25.8164 31.6607 26.1935C31.8397 26.5707 31.9292 27.0245 31.9292 27.555C31.9292 28.0856 31.8408 28.5405 31.6639 28.9197C31.4871 29.2969 31.2442 29.5877 30.9352 29.7923C30.6263 29.9947 30.2737 30.0959 29.8774 30.0959C29.5791 30.0959 29.3351 30.0458 29.1455 29.9457C28.958 29.8455 28.8109 29.7283 28.7044 29.5941C28.5979 29.4599 28.5158 29.3406 28.4583 29.2362H28.3784V30H27.4452ZM28.3816 27.5455C28.3816 27.8906 28.4317 28.1932 28.5318 28.4531C28.632 28.7131 28.7769 28.9165 28.9665 29.0636C29.1561 29.2085 29.3884 29.2809 29.6632 29.2809C29.9487 29.2809 30.1874 29.2053 30.3791 29.054C30.5709 28.9006 30.7158 28.6928 30.8138 28.4308C30.9139 28.1687 30.964 27.8736 30.964 27.5455C30.964 27.2216 30.915 26.9308 30.817 26.6729C30.7211 26.4151 30.5762 26.2116 30.3823 26.0625C30.1906 25.9134 29.9509 25.8388 29.6632 25.8388C29.3862 25.8388 29.1519 25.9102 28.9601 26.0529C28.7705 26.1957 28.6266 26.3949 28.5286 26.6506C28.4306 26.9062 28.3816 27.2045 28.3816 27.5455ZM33.0023 30V25.0909H33.9259V25.8707H33.9771C34.0665 25.6065 34.2242 25.3988 34.4501 25.2475C34.678 25.0941 34.9359 25.0174 35.2235 25.0174C35.2832 25.0174 35.3535 25.0195 35.4344 25.0238C35.5175 25.0281 35.5825 25.0334 35.6294 25.0398V25.9538C35.591 25.9432 35.5229 25.9315 35.4248 25.9187C35.3268 25.9038 35.2288 25.8963 35.1308 25.8963C34.905 25.8963 34.7036 25.9442 34.5268 26.0401C34.3521 26.1339 34.2136 26.2649 34.1113 26.4332C34.009 26.5994 33.9579 26.7891 33.9579 27.0021V30H33.0023ZM37.841 30.1087C37.53 30.1087 37.2487 30.0511 36.9973 29.9361C36.7459 29.8189 36.5467 29.6495 36.3996 29.4279C36.2547 29.2063 36.1823 28.9347 36.1823 28.6129C36.1823 28.3359 36.2356 28.108 36.3421 27.929C36.4486 27.75 36.5925 27.6083 36.7736 27.5039C36.9547 27.3995 37.1571 27.3207 37.3808 27.2674C37.6045 27.2141 37.8325 27.1737 38.0648 27.146C38.3588 27.1119 38.5974 27.0842 38.7807 27.0629C38.9639 27.0394 39.0971 27.0021 39.1802 26.951C39.2633 26.8999 39.3048 26.8168 39.3048 26.7017V26.6793C39.3048 26.4002 39.226 26.1839 39.0683 26.0305C38.9128 25.8771 38.6805 25.8004 38.3716 25.8004C38.0498 25.8004 37.7963 25.8718 37.6109 26.0146C37.4277 26.1552 37.3009 26.3118 37.2306 26.4844L36.3325 26.2798C36.4391 25.9815 36.5946 25.7408 36.7991 25.5575C37.0058 25.3722 37.2434 25.2379 37.5119 25.1548C37.7803 25.0696 38.0626 25.027 38.3588 25.027C38.5548 25.027 38.7626 25.0504 38.982 25.0973C39.2036 25.142 39.4103 25.2251 39.6021 25.3466C39.7959 25.468 39.9547 25.6417 40.0783 25.8675C40.2018 26.0913 40.2636 26.3821 40.2636 26.7401V30H39.3304V29.3288H39.292C39.2302 29.4524 39.1376 29.5739 39.014 29.6932C38.8904 29.8125 38.7317 29.9116 38.5378 29.9904C38.3439 30.0692 38.1116 30.1087 37.841 30.1087ZM38.0488 29.3416C38.313 29.3416 38.5388 29.2894 38.7263 29.185C38.916 29.0806 39.0598 28.9442 39.1578 28.7759C39.2579 28.6055 39.308 28.4233 39.308 28.2294V27.5966C39.2739 27.6307 39.2079 27.6626 39.1099 27.6925C39.014 27.7202 38.9043 27.7447 38.7807 27.766C38.6571 27.7852 38.5367 27.8033 38.4195 27.8203C38.3023 27.8352 38.2043 27.848 38.1255 27.8587C37.9401 27.8821 37.7707 27.9215 37.6173 27.9769C37.466 28.0323 37.3446 28.1122 37.253 28.2166C37.1635 28.3189 37.1187 28.4553 37.1187 28.6257C37.1187 28.8622 37.2061 29.0412 37.3808 29.1626C37.5555 29.282 37.7782 29.3416 38.0488 29.3416ZM41.5364 30V25.0909H42.4601V25.8707H42.5112C42.6007 25.6065 42.7584 25.3988 42.9842 25.2475C43.2122 25.0941 43.47 25.0174 43.7577 25.0174C43.8173 25.0174 43.8877 25.0195 43.9686 25.0238C44.0517 25.0281 44.1167 25.0334 44.1636 25.0398V25.9538C44.1252 25.9432 44.057 25.9315 43.959 25.9187C43.861 25.9038 43.763 25.8963 43.665 25.8963C43.4391 25.8963 43.2378 25.9442 43.0609 26.0401C42.8862 26.1339 42.7477 26.2649 42.6455 26.4332C42.5432 26.5994 42.4921 26.7891 42.4921 27.0021V30H41.5364ZM45.744 31.8409C45.6013 31.8409 45.4713 31.8292 45.3541 31.8058C45.2369 31.7844 45.1495 31.761 45.092 31.7354L45.3221 30.9524C45.4968 30.9993 45.6524 31.0195 45.7888 31.0131C45.9251 31.0067 46.0455 30.9556 46.1499 30.8597C46.2564 30.7638 46.3502 30.6072 46.4312 30.3899L46.5494 30.0639L44.7532 25.0909H45.776L47.0192 28.9006H47.0704L48.3136 25.0909H49.3395L47.3165 30.6552C47.2227 30.9109 47.1034 31.1271 46.9585 31.304C46.8136 31.483 46.641 31.6172 46.4407 31.7067C46.2405 31.7962 46.0082 31.8409 45.744 31.8409Z" fill="white"/>
</g>
<defs>
<clipPath id="clip0_106_4">
<rect width="70" height="30" fill="white"/>
</clipPath>
</defs>
</svg>
