<svg width="16" height="16" viewBox="0 0 16 16" fill="none" xmlns="http://www.w3.org/2000/svg">
<path d="M13.7467 9.62555C12.588 11.077 10.9206 12.6236 8.8611 14.5324C8.86077 14.5327 8.86045 14.533 8.86012 14.5333L8 15.3217L7.13988 14.5333C7.13955 14.533 7.13923 14.5327 7.1389 14.5324C5.0794 12.6236 3.41196 11.077 2.25325 9.62555C1.10088 8.18206 0.5 6.89039 0.5 5.5C0.5 3.2613 2.19076 1.5 4.4 1.5C5.63274 1.5 6.80465 2.11926 7.62835 3.03448L8 3.44742L8.37165 3.03448C9.19535 2.11926 10.3673 1.5 11.6 1.5C13.8092 1.5 15.5 3.2613 15.5 5.5C15.5 6.89039 14.8991 8.18206 13.7467 9.62555Z" stroke="#BCBCBC"/>
</svg>
