<svg width="42" height="42" viewBox="0 0 42 42" fill="none" xmlns="http://www.w3.org/2000/svg">
<path fill-rule="evenodd" clip-rule="evenodd" d="M21 36.5556C29.5911 36.5556 36.5556 29.5911 36.5556 21C36.5556 12.4089 29.5911 5.44444 21 5.44444C12.4089 5.44444 5.44444 12.4089 5.44444 21C5.44444 29.5911 12.4089 36.5556 21 36.5556ZM21 38.5C30.665 38.5 38.5 30.665 38.5 21C38.5 11.335 30.665 3.5 21 3.5C11.335 3.5 3.5 11.335 3.5 21C3.5 30.665 11.335 38.5 21 38.5Z" fill="white"/>
<path fill-rule="evenodd" clip-rule="evenodd" d="M31.5 22.75H10.5V20.125H31.5V22.75Z" fill="white"/>
<path fill-rule="evenodd" clip-rule="evenodd" d="M19.25 31.5L19.25 10.5L21.875 10.5L21.875 31.5L19.25 31.5Z" fill="white"/>
</svg>
