<svg width="28" height="28" viewBox="0 0 28 28" fill="none" xmlns="http://www.w3.org/2000/svg">
<path fill-rule="evenodd" clip-rule="evenodd" d="M5.39734 10.0029C3.34752 11.1517 2.6452 13.6959 3.82866 15.6856C4.49045 16.7982 5.51738 17.5491 6.61863 17.8131C5.10141 19.0933 4.68008 21.2771 5.72288 23.0303C6.90634 25.0199 9.52745 25.7017 11.5773 24.5529L21.7814 18.8344C23.8312 17.6856 24.5335 15.1414 23.35 13.1517C22.6971 12.054 21.6066 11.3544 20.4158 11.1407C22.0498 9.8798 22.531 7.61461 21.4558 5.80706C20.2724 3.81736 17.6513 3.13564 15.6014 4.28439L5.39734 10.0029ZM17.7103 11.6856C17.7444 11.5573 17.8288 11.4424 17.9554 11.3714L19.3514 10.5891C20.8888 9.72749 21.4155 7.81933 20.5279 6.32706C19.6403 4.83478 17.6745 4.32349 16.1371 5.18506L5.93306 10.9036C4.39569 11.7651 3.86895 13.6733 4.75655 15.1656C5.54365 16.4889 6.92827 17.1811 8.2023 16.777C8.38081 16.7203 8.5786 16.7334 8.73634 16.8163C8.82297 16.8608 8.89839 16.929 8.95126 17.0179C9.09919 17.2666 9.01447 17.5829 8.76203 17.7244L7.82727 18.2483C6.2899 19.1098 5.76316 21.018 6.65076 22.5103C7.53836 24.0025 9.50419 24.5138 11.0416 23.6523L21.2456 17.9337C22.783 17.0722 23.3098 15.164 22.4222 13.6717C21.6241 12.33 19.9543 11.7813 18.508 12.3105C18.2352 12.4104 17.9114 12.3281 17.7635 12.0794C17.689 11.9542 17.6733 11.811 17.7103 11.6856Z" fill="white"/>
<path d="M11.5366 12.7993C11.5366 12.4216 11.9522 12.1887 12.2892 12.3776L16.5749 14.7793C16.9157 14.9703 16.9204 15.4483 16.5834 15.6372L12.2977 18.0389C11.9607 18.2278 11.5366 17.9848 11.5366 17.6028L11.5366 12.7993Z" fill="white"/>
</svg>
