<svg width="70" height="30" viewBox="0 0 70 30" fill="none" xmlns="http://www.w3.org/2000/svg">
<g clip-path="url(#clip0_106_4)">
<rect x="25.683" y="7.92822" width="16.4904" height="7.06218" rx="3.5" transform="rotate(-30 25.683 7.92822)" stroke="white"/>
<rect x="25.8612" y="16.1112" width="16.8923" height="6.90152" rx="3.45076" transform="rotate(-30 25.8612 16.1112)" stroke="white"/>
<path d="M32.6696 8.52331L37.2933 11.1929L32.6696 13.8624L32.6696 8.52331Z" fill="white"/>
<path d="M25.0552 25.174C25.0211 24.8714 24.8805 24.6371 24.6333 24.4709C24.3861 24.3026 24.0751 24.2184 23.7001 24.2184C23.4316 24.2184 23.1994 24.261 23.0033 24.3462C22.8073 24.4293 22.655 24.5444 22.5463 24.6914C22.4398 24.8363 22.3865 25.0014 22.3865 25.1868C22.3865 25.3423 22.4227 25.4766 22.4952 25.5895C22.5697 25.7024 22.6667 25.7972 22.786 25.8739C22.9074 25.9485 23.0374 26.0114 23.1759 26.0625C23.3144 26.1115 23.4476 26.152 23.5754 26.1839L24.2146 26.3501C24.4234 26.4013 24.6376 26.4705 24.857 26.5579C25.0765 26.6452 25.28 26.7603 25.4675 26.9031C25.655 27.0458 25.8062 27.2227 25.9213 27.4336C26.0385 27.6445 26.0971 27.897 26.0971 28.1911C26.0971 28.5618 26.0012 28.891 25.8094 29.1786C25.6198 29.4663 25.3439 29.6932 24.9817 29.8594C24.6216 30.0256 24.1859 30.1087 23.6745 30.1087C23.1844 30.1087 22.7604 30.0309 22.4025 29.8754C22.0445 29.7198 21.7643 29.4993 21.5619 29.2138C21.3595 28.9261 21.2476 28.5852 21.2263 28.1911H22.2171C22.2363 28.4276 22.313 28.6246 22.4472 28.7823C22.5836 28.9379 22.7572 29.054 22.9682 29.1307C23.1812 29.2053 23.4146 29.2425 23.6681 29.2425C23.9472 29.2425 24.1954 29.1989 24.4128 29.1115C24.6322 29.022 24.8048 28.8984 24.9305 28.7408C25.0562 28.581 25.1191 28.3945 25.1191 28.1815C25.1191 27.9876 25.0637 27.8288 24.9529 27.7053C24.8442 27.5817 24.6962 27.4794 24.5087 27.3984C24.3233 27.3175 24.1134 27.2461 23.879 27.1843L23.1056 26.9734C22.5815 26.8306 22.166 26.6207 21.8592 26.3438C21.5545 26.0668 21.4021 25.7003 21.4021 25.2443C21.4021 24.8672 21.5044 24.538 21.7089 24.2567C21.9135 23.9755 22.1905 23.7571 22.5399 23.6016C22.8893 23.4439 23.2835 23.3651 23.7224 23.3651C24.1656 23.3651 24.5566 23.4428 24.8954 23.5984C25.2363 23.7539 25.5047 23.968 25.7008 24.2408C25.8968 24.5114 25.9991 24.8224 26.0076 25.174H25.0552ZM28.1561 27.0852V30H27.2005V23.4545H28.1433V25.8899H28.2041C28.3191 25.6257 28.4949 25.4158 28.7314 25.2603C28.9679 25.1048 29.2769 25.027 29.6582 25.027C29.9949 25.027 30.2889 25.0962 30.5403 25.2347C30.7939 25.3732 30.9899 25.5799 31.1284 25.8548C31.269 26.1275 31.3394 26.4684 31.3394 26.8775V30H30.3837V26.9925C30.3837 26.6325 30.2911 26.3533 30.1057 26.1552C29.9203 25.9549 29.6625 25.8548 29.3323 25.8548C29.1064 25.8548 28.904 25.9027 28.725 25.9986C28.5482 26.0945 28.4086 26.2351 28.3063 26.4205C28.2062 26.6037 28.1561 26.8253 28.1561 27.0852ZM34.6824 30.0991C34.2222 30.0991 33.8205 29.9936 33.4775 29.7827C33.1345 29.5717 32.8681 29.2766 32.6785 28.8974C32.4889 28.5181 32.394 28.0749 32.394 27.5678C32.394 27.0586 32.4889 26.6133 32.6785 26.2319C32.8681 25.8505 33.1345 25.5543 33.4775 25.3434C33.8205 25.1325 34.2222 25.027 34.6824 25.027C35.1426 25.027 35.5443 25.1325 35.8873 25.3434C36.2303 25.5543 36.4967 25.8505 36.6863 26.2319C36.8759 26.6133 36.9707 27.0586 36.9707 27.5678C36.9707 28.0749 36.8759 28.5181 36.6863 28.8974C36.4967 29.2766 36.2303 29.5717 35.8873 29.7827C35.5443 29.9936 35.1426 30.0991 34.6824 30.0991ZM34.6856 29.2969C34.9839 29.2969 35.231 29.218 35.4271 29.0604C35.6231 28.9027 35.768 28.6928 35.8617 28.4308C35.9576 28.1687 36.0055 27.88 36.0055 27.5646C36.0055 27.2514 35.9576 26.9638 35.8617 26.7017C35.768 26.4375 35.6231 26.2255 35.4271 26.0657C35.231 25.9059 34.9839 25.826 34.6856 25.826C34.3852 25.826 34.1359 25.9059 33.9377 26.0657C33.7417 26.2255 33.5957 26.4375 33.4999 26.7017C33.4061 26.9638 33.3592 27.2514 33.3592 27.5646C33.3592 27.88 33.4061 28.1687 33.4999 28.4308C33.5957 28.6928 33.7417 28.9027 33.9377 29.0604C34.1359 29.218 34.3852 29.2969 34.6856 29.2969ZM38.0374 30V25.0909H38.9611V25.8707H39.0122C39.1017 25.6065 39.2594 25.3988 39.4852 25.2475C39.7132 25.0941 39.971 25.0174 40.2587 25.0174C40.3183 25.0174 40.3886 25.0195 40.4696 25.0238C40.5527 25.0281 40.6177 25.0334 40.6646 25.0398V25.9538C40.6262 25.9432 40.558 25.9315 40.46 25.9187C40.362 25.9038 40.264 25.8963 40.166 25.8963C39.9401 25.8963 39.7388 25.9442 39.5619 26.0401C39.3872 26.1339 39.2487 26.2649 39.1464 26.4332C39.0442 26.5994 38.993 26.7891 38.993 27.0021V30H38.0374ZM44.0731 25.0909V25.858H41.3916V25.0909H44.0731ZM42.1108 23.9148H43.0664V28.5586C43.0664 28.744 43.0941 28.8835 43.1495 28.9773C43.2049 29.0689 43.2762 29.1317 43.3636 29.1658C43.4531 29.1978 43.55 29.2138 43.6544 29.2138C43.7311 29.2138 43.7983 29.2085 43.8558 29.1978C43.9133 29.1871 43.9581 29.1786 43.99 29.1722L44.1626 29.9616C44.1072 29.983 44.0284 30.0043 43.9261 30.0256C43.8238 30.049 43.696 30.0618 43.5426 30.0639C43.2911 30.0682 43.0568 30.0234 42.8394 29.9297C42.6221 29.8359 42.4463 29.6911 42.3121 29.495C42.1779 29.299 42.1108 29.0529 42.1108 28.7567V23.9148ZM48.7297 26.2894L47.8636 26.4428C47.8274 26.332 47.7698 26.2266 47.691 26.1264C47.6143 26.0263 47.5099 25.9442 47.3778 25.8803C47.2457 25.8164 47.0806 25.7844 46.8824 25.7844C46.6118 25.7844 46.386 25.8452 46.2049 25.9666C46.0237 26.0859 45.9332 26.2404 45.9332 26.43C45.9332 26.5941 45.9939 26.7262 46.1154 26.8263C46.2368 26.9265 46.4328 27.0085 46.7034 27.0724L47.4833 27.2514C47.935 27.3558 48.2716 27.5167 48.4932 27.734C48.7148 27.9513 48.8256 28.2337 48.8256 28.581C48.8256 28.875 48.7404 29.1371 48.5699 29.3672C48.4016 29.5952 48.1661 29.7741 47.8636 29.9041C47.5632 30.0341 47.2148 30.0991 46.8185 30.0991C46.2688 30.0991 45.8203 29.9819 45.473 29.7475C45.1257 29.511 44.9126 29.1754 44.8338 28.7408L45.7574 28.6001C45.8149 28.8409 45.9332 29.0231 46.1122 29.1467C46.2911 29.2681 46.5245 29.3288 46.8121 29.3288C47.1253 29.3288 47.3757 29.2638 47.5632 29.1339C47.7507 29.0018 47.8444 28.8409 47.8444 28.6513C47.8444 28.4979 47.7869 28.369 47.6718 28.2646C47.5589 28.1602 47.3853 28.0813 47.1509 28.0281L46.3199 27.8459C45.8618 27.7415 45.523 27.5753 45.3036 27.3473C45.0862 27.1193 44.9776 26.8306 44.9776 26.4812C44.9776 26.1914 45.0585 25.9379 45.2205 25.7205C45.3824 25.5032 45.6061 25.3338 45.8916 25.2124C46.1772 25.0888 46.5042 25.027 46.8728 25.027C47.4034 25.027 47.821 25.142 48.1257 25.3722C48.4304 25.6001 48.6317 25.9059 48.7297 26.2894Z" fill="white"/>
</g>
<defs>
<clipPath id="clip0_106_4">
<rect width="70" height="30" fill="white"/>
</clipPath>
</defs>
</svg>
