<svg width="70" height="30" viewBox="0 0 70 30" fill="none" xmlns="http://www.w3.org/2000/svg">
<g clip-path="url(#clip0_106_4)">
<rect x="24.5" y="9.5" width="19" height="10" stroke="white"/>
<line x1="24" y1="8.5" x2="37" y2="8.5" stroke="white"/>
<line x1="26" y1="5.5" x2="37" y2="5.5" stroke="white"/>
<line x1="29" y1="2.5" x2="37" y2="2.5" stroke="white"/>
<circle cx="42" cy="6" r="4" fill="white"/>
<path d="M32.6696 11.9587L37.2933 14.6283L32.6696 17.2978L32.6696 11.9587Z" fill="white"/>
<path d="M9.70068 25.174C9.66659 24.8714 9.52597 24.6371 9.27881 24.4709C9.03165 24.3026 8.72057 24.2184 8.34557 24.2184C8.0771 24.2184 7.84486 24.261 7.64884 24.3462C7.45281 24.4293 7.30047 24.5444 7.19181 24.6914C7.08527 24.8363 7.032 25.0014 7.032 25.1868C7.032 25.3423 7.06823 25.4766 7.14067 25.5895C7.21524 25.7024 7.31219 25.7972 7.43151 25.8739C7.55296 25.9485 7.68293 26.0114 7.82142 26.0625C7.95992 26.1115 8.09308 26.152 8.22093 26.1839L8.86013 26.3501C9.06894 26.4013 9.28307 26.4705 9.50253 26.5579C9.72199 26.6452 9.92547 26.7603 10.113 26.9031C10.3005 27.0458 10.4517 27.2227 10.5668 27.4336C10.684 27.6445 10.7426 27.897 10.7426 28.1911C10.7426 28.5618 10.6467 28.891 10.4549 29.1786C10.2653 29.4663 9.98939 29.6932 9.62718 29.8594C9.26709 30.0256 8.83137 30.1087 8.32 30.1087C7.82994 30.1087 7.40594 30.0309 7.04798 29.8754C6.69003 29.7198 6.40985 29.4993 6.20743 29.2138C6.00502 28.9261 5.89316 28.5852 5.87185 28.1911H6.86262C6.88179 28.4276 6.9585 28.6246 7.09273 28.7823C7.22909 28.9379 7.40274 29.054 7.61368 29.1307C7.82675 29.2053 8.06006 29.2425 8.31361 29.2425C8.59273 29.2425 8.84095 29.1989 9.05828 29.1115C9.27774 29.022 9.45033 28.8984 9.57604 28.7408C9.70175 28.581 9.7646 28.3945 9.7646 28.1815C9.7646 27.9876 9.70921 27.8288 9.59841 27.7053C9.48975 27.5817 9.34166 27.4794 9.15416 27.3984C8.96879 27.3175 8.75892 27.2461 8.52455 27.1843L7.75111 26.9734C7.22696 26.8306 6.81148 26.6207 6.50466 26.3438C6.19997 26.0668 6.04763 25.7003 6.04763 25.2443C6.04763 24.8672 6.1499 24.538 6.35445 24.2567C6.55899 23.9755 6.83598 23.7571 7.18541 23.6016C7.53485 23.4439 7.92902 23.3651 8.36794 23.3651C8.81112 23.3651 9.2021 23.4428 9.54088 23.5984C9.88179 23.7539 10.1503 23.968 10.3463 24.2408C10.5423 24.5114 10.6446 24.8224 10.6531 25.174H9.70068ZM14.9557 27.9641V25.0909H15.9146V30H14.9749V29.1499H14.9238C14.8109 29.4119 14.6297 29.6303 14.3805 29.805C14.1333 29.9776 13.8254 30.0639 13.4568 30.0639C13.1415 30.0639 12.8623 29.9947 12.6195 29.8562C12.3787 29.7156 12.1891 29.5078 12.0506 29.233C11.9142 28.9581 11.846 28.6183 11.846 28.2134V25.0909H12.8016V28.0984C12.8016 28.4329 12.8943 28.6992 13.0797 28.8974C13.265 29.0955 13.5058 29.1946 13.802 29.1946C13.981 29.1946 14.1589 29.1499 14.3357 29.0604C14.5147 28.9709 14.6628 28.8356 14.78 28.6545C14.8993 28.4734 14.9579 28.2433 14.9557 27.9641ZM17.2753 30V23.4545H18.2309V25.8867H18.2884C18.3438 25.7844 18.4237 25.6662 18.5281 25.532C18.6325 25.3977 18.7774 25.2805 18.9628 25.1804C19.1481 25.0781 19.3932 25.027 19.6978 25.027C20.0941 25.027 20.4478 25.1271 20.7589 25.3274C21.07 25.5277 21.314 25.8164 21.4908 26.1935C21.6698 26.5707 21.7593 27.0245 21.7593 27.555C21.7593 28.0856 21.6709 28.5405 21.494 28.9197C21.3172 29.2969 21.0743 29.5877 20.7653 29.7923C20.4564 29.9947 20.1037 30.0959 19.7074 30.0959C19.4091 30.0959 19.1652 30.0458 18.9755 29.9457C18.788 29.8455 18.641 29.7283 18.5345 29.5941C18.428 29.4599 18.3459 29.3406 18.2884 29.2362H18.2085V30H17.2753ZM18.2117 27.5455C18.2117 27.8906 18.2618 28.1932 18.3619 28.4531C18.462 28.7131 18.6069 28.9165 18.7966 29.0636C18.9862 29.2085 19.2184 29.2809 19.4933 29.2809C19.7788 29.2809 20.0174 29.2053 20.2092 29.054C20.401 28.9006 20.5459 28.6928 20.6439 28.4308C20.744 28.1687 20.7941 27.8736 20.7941 27.5455C20.7941 27.2216 20.7451 26.9308 20.6471 26.6729C20.5512 26.4151 20.4063 26.2116 20.2124 26.0625C20.0206 25.9134 19.7809 25.8388 19.4933 25.8388C19.2163 25.8388 18.9819 25.9102 18.7902 26.0529C18.6005 26.1957 18.4567 26.3949 18.3587 26.6506C18.2607 26.9062 18.2117 27.2045 18.2117 27.5455ZM26.511 26.2894L25.6448 26.4428C25.6086 26.332 25.5511 26.2266 25.4723 26.1264C25.3956 26.0263 25.2911 25.9442 25.159 25.8803C25.0269 25.8164 24.8618 25.7844 24.6637 25.7844C24.3931 25.7844 24.1672 25.8452 23.9861 25.9666C23.805 26.0859 23.7144 26.2404 23.7144 26.43C23.7144 26.5941 23.7752 26.7262 23.8966 26.8263C24.0181 26.9265 24.2141 27.0085 24.4847 27.0724L25.2645 27.2514C25.7162 27.3558 26.0529 27.5167 26.2745 27.734C26.496 27.9513 26.6068 28.2337 26.6068 28.581C26.6068 28.875 26.5216 29.1371 26.3512 29.3672C26.1828 29.5952 25.9474 29.7741 25.6448 29.9041C25.3444 30.0341 24.996 30.0991 24.5997 30.0991C24.05 30.0991 23.6015 29.9819 23.2542 29.7475C22.9069 29.511 22.6938 29.1754 22.615 28.7408L23.5387 28.6001C23.5962 28.8409 23.7144 29.0231 23.8934 29.1467C24.0724 29.2681 24.3057 29.3288 24.5934 29.3288C24.9066 29.3288 25.1569 29.2638 25.3444 29.1339C25.5319 29.0018 25.6257 28.8409 25.6257 28.6513C25.6257 28.4979 25.5681 28.369 25.4531 28.2646C25.3402 28.1602 25.1665 28.0813 24.9321 28.0281L24.1012 27.8459C23.6431 27.7415 23.3043 27.5753 23.0848 27.3473C22.8675 27.1193 22.7588 26.8306 22.7588 26.4812C22.7588 26.1914 22.8398 25.9379 23.0017 25.7205C23.1637 25.5032 23.3874 25.3338 23.6729 25.2124C23.9584 25.0888 24.2855 25.027 24.6541 25.027C25.1846 25.027 25.6022 25.142 25.9069 25.3722C26.2116 25.6001 26.413 25.9059 26.511 26.2894ZM29.7254 30.0991C29.2502 30.0991 28.8411 29.9915 28.4981 29.7763C28.1572 29.5589 27.8951 29.2596 27.7119 28.8782C27.5286 28.4968 27.437 28.06 27.437 27.5678C27.437 27.0692 27.5308 26.6293 27.7183 26.2479C27.9058 25.8643 28.17 25.565 28.5109 25.3498C28.8518 25.1346 29.2534 25.027 29.7158 25.027C30.0886 25.027 30.421 25.0962 30.7129 25.2347C31.0048 25.3711 31.2403 25.5629 31.4193 25.81C31.6004 26.0572 31.708 26.3459 31.7421 26.6761H30.812C30.7609 26.446 30.6437 26.2479 30.4604 26.0817C30.2793 25.9155 30.0364 25.8324 29.7318 25.8324C29.4654 25.8324 29.2321 25.9027 29.0318 26.0433C28.8337 26.1818 28.6792 26.38 28.5684 26.6378C28.4576 26.8935 28.4022 27.196 28.4022 27.5455C28.4022 27.9034 28.4565 28.2124 28.5652 28.4723C28.6739 28.7322 28.8273 28.9336 29.0254 29.0763C29.2257 29.2191 29.4612 29.2905 29.7318 29.2905C29.9129 29.2905 30.0769 29.2575 30.2239 29.1914C30.3731 29.1232 30.4977 29.0263 30.5979 28.9006C30.7002 28.7749 30.7715 28.6236 30.812 28.4467H31.7421C31.708 28.7642 31.6046 29.0476 31.432 29.2969C31.2595 29.5462 31.0283 29.7422 30.7385 29.8849C30.4509 30.0277 30.1131 30.0991 29.7254 30.0991ZM32.764 30V25.0909H33.6876V25.8707H33.7388C33.8283 25.6065 33.9859 25.3988 34.2118 25.2475C34.4398 25.0941 34.6976 25.0174 34.9852 25.0174C35.0449 25.0174 35.1152 25.0195 35.1962 25.0238C35.2793 25.0281 35.3442 25.0334 35.3911 25.0398V25.9538C35.3528 25.9432 35.2846 25.9315 35.1866 25.9187C35.0886 25.9038 34.9905 25.8963 34.8925 25.8963C34.6667 25.8963 34.4653 25.9442 34.2885 26.0401C34.1138 26.1339 33.9753 26.2649 33.873 26.4332C33.7707 26.5994 33.7196 26.7891 33.7196 27.0021V30H32.764ZM36.2181 30V25.0909H37.1737V30H36.2181ZM36.7007 24.3335C36.5345 24.3335 36.3917 24.2781 36.2724 24.1673C36.1552 24.0543 36.0966 23.9201 36.0966 23.7646C36.0966 23.6069 36.1552 23.4727 36.2724 23.3619C36.3917 23.2489 36.5345 23.1925 36.7007 23.1925C36.8669 23.1925 37.0086 23.2489 37.1258 23.3619C37.2451 23.4727 37.3047 23.6069 37.3047 23.7646C37.3047 23.9201 37.2451 24.0543 37.1258 24.1673C37.0086 24.2781 36.8669 24.3335 36.7007 24.3335ZM38.4593 31.8409V25.0909H39.3925V25.8867H39.4724C39.5278 25.7844 39.6077 25.6662 39.7121 25.532C39.8165 25.3977 39.9614 25.2805 40.1468 25.1804C40.3322 25.0781 40.5772 25.027 40.8819 25.027C41.2782 25.027 41.6319 25.1271 41.943 25.3274C42.254 25.5277 42.498 25.8164 42.6748 26.1935C42.8538 26.5707 42.9433 27.0245 42.9433 27.555C42.9433 28.0856 42.8549 28.5405 42.678 28.9197C42.5012 29.2969 42.2583 29.5877 41.9494 29.7923C41.6404 29.9947 41.2878 30.0959 40.8915 30.0959C40.5932 30.0959 40.3492 30.0458 40.1596 29.9457C39.9721 29.8455 39.8251 29.7283 39.7185 29.5941C39.612 29.4599 39.53 29.3406 39.4724 29.2362H39.4149V31.8409H38.4593ZM39.3957 27.5455C39.3957 27.8906 39.4458 28.1932 39.5459 28.4531C39.6461 28.7131 39.791 28.9165 39.9806 29.0636C40.1702 29.2085 40.4025 29.2809 40.6773 29.2809C40.9628 29.2809 41.2015 29.2053 41.3932 29.054C41.585 28.9006 41.7299 28.6928 41.8279 28.4308C41.928 28.1687 41.9781 27.8736 41.9781 27.5455C41.9781 27.2216 41.9291 26.9308 41.8311 26.6729C41.7352 26.4151 41.5903 26.2116 41.3964 26.0625C41.2047 25.9134 40.965 25.8388 40.6773 25.8388C40.4003 25.8388 40.166 25.9102 39.9742 26.0529C39.7846 26.1957 39.6408 26.3949 39.5427 26.6506C39.4447 26.9062 39.3957 27.2045 39.3957 27.5455ZM46.3055 25.0909V25.858H43.6241V25.0909H46.3055ZM44.3432 23.9148H45.2988V28.5586C45.2988 28.744 45.3265 28.8835 45.3819 28.9773C45.4373 29.0689 45.5087 29.1317 45.596 29.1658C45.6855 29.1978 45.7824 29.2138 45.8869 29.2138C45.9636 29.2138 46.0307 29.2085 46.0882 29.1978C46.1457 29.1871 46.1905 29.1786 46.2224 29.1722L46.395 29.9616C46.3396 29.983 46.2608 30.0043 46.1585 30.0256C46.0562 30.049 45.9284 30.0618 45.775 30.0639C45.5236 30.0682 45.2892 30.0234 45.0719 29.9297C44.8545 29.8359 44.6788 29.6911 44.5445 29.495C44.4103 29.299 44.3432 29.0529 44.3432 28.7567V23.9148ZM47.3626 30V25.0909H48.3182V30H47.3626ZM47.8452 24.3335C47.679 24.3335 47.5363 24.2781 47.4169 24.1673C47.2998 24.0543 47.2412 23.9201 47.2412 23.7646C47.2412 23.6069 47.2998 23.4727 47.4169 23.3619C47.5363 23.2489 47.679 23.1925 47.8452 23.1925C48.0114 23.1925 48.1531 23.2489 48.2703 23.3619C48.3896 23.4727 48.4493 23.6069 48.4493 23.7646C48.4493 23.9201 48.3896 24.0543 48.2703 24.1673C48.1531 24.2781 48.0114 24.3335 47.8452 24.3335ZM51.6717 30.0991C51.2114 30.0991 50.8098 29.9936 50.4668 29.7827C50.1237 29.5717 49.8574 29.2766 49.6677 28.8974C49.4781 28.5181 49.3833 28.0749 49.3833 27.5678C49.3833 27.0586 49.4781 26.6133 49.6677 26.2319C49.8574 25.8505 50.1237 25.5543 50.4668 25.3434C50.8098 25.1325 51.2114 25.027 51.6717 25.027C52.1319 25.027 52.5335 25.1325 52.8766 25.3434C53.2196 25.5543 53.4859 25.8505 53.6756 26.2319C53.8652 26.6133 53.96 27.0586 53.96 27.5678C53.96 28.0749 53.8652 28.5181 53.6756 28.8974C53.4859 29.2766 53.2196 29.5717 52.8766 29.7827C52.5335 29.9936 52.1319 30.0991 51.6717 30.0991ZM51.6748 29.2969C51.9731 29.2969 52.2203 29.218 52.4163 29.0604C52.6123 28.9027 52.7572 28.6928 52.851 28.4308C52.9469 28.1687 52.9948 27.88 52.9948 27.5646C52.9948 27.2514 52.9469 26.9638 52.851 26.7017C52.7572 26.4375 52.6123 26.2255 52.4163 26.0657C52.2203 25.9059 51.9731 25.826 51.6748 25.826C51.3744 25.826 51.1251 25.9059 50.927 26.0657C50.731 26.2255 50.585 26.4375 50.4891 26.7017C50.3954 26.9638 50.3485 27.2514 50.3485 27.5646C50.3485 27.88 50.3954 28.1687 50.4891 28.4308C50.585 28.6928 50.731 28.9027 50.927 29.0604C51.1251 29.218 51.3744 29.2969 51.6748 29.2969ZM55.9823 27.0852V30H55.0267V25.0909H55.9439V25.8899H56.0047C56.1176 25.63 56.2944 25.4212 56.5352 25.2635C56.7781 25.1058 57.0839 25.027 57.4525 25.027C57.787 25.027 58.0799 25.0973 58.3314 25.2379C58.5828 25.3764 58.7777 25.5831 58.9162 25.858C59.0547 26.1328 59.124 26.4727 59.124 26.8775V30H58.1684V26.9925C58.1684 26.6367 58.0757 26.3587 57.8903 26.1584C57.7049 25.956 57.4503 25.8548 57.1265 25.8548C56.9049 25.8548 56.7078 25.9027 56.5352 25.9986C56.3647 26.0945 56.2294 26.2351 56.1293 26.4205C56.0313 26.6037 55.9823 26.8253 55.9823 27.0852ZM64.0842 26.2894L63.2181 26.4428C63.1819 26.332 63.1243 26.2266 63.0455 26.1264C62.9688 26.0263 62.8644 25.9442 62.7323 25.8803C62.6002 25.8164 62.4351 25.7844 62.2369 25.7844C61.9663 25.7844 61.7405 25.8452 61.5593 25.9666C61.3782 26.0859 61.2877 26.2404 61.2877 26.43C61.2877 26.5941 61.3484 26.7262 61.4699 26.8263C61.5913 26.9265 61.7873 27.0085 62.0579 27.0724L62.8378 27.2514C63.2895 27.3558 63.6261 27.5167 63.8477 27.734C64.0693 27.9513 64.1801 28.2337 64.1801 28.581C64.1801 28.875 64.0949 29.1371 63.9244 29.3672C63.7561 29.5952 63.5206 29.7741 63.2181 29.9041C62.9177 30.0341 62.5693 30.0991 62.173 30.0991C61.6233 30.0991 61.1748 29.9819 60.8275 29.7475C60.4802 29.511 60.2671 29.1754 60.1883 28.7408L61.1119 28.6001C61.1694 28.8409 61.2877 29.0231 61.4667 29.1467C61.6456 29.2681 61.879 29.3288 62.1666 29.3288C62.4798 29.3288 62.7302 29.2638 62.9177 29.1339C63.1052 29.0018 63.1989 28.8409 63.1989 28.6513C63.1989 28.4979 63.1414 28.369 63.0263 28.2646C62.9134 28.1602 62.7397 28.0813 62.5054 28.0281L61.6744 27.8459C61.2163 27.7415 60.8775 27.5753 60.6581 27.3473C60.4407 27.1193 60.3321 26.8306 60.3321 26.4812C60.3321 26.1914 60.413 25.9379 60.575 25.7205C60.7369 25.5032 60.9606 25.3338 61.2461 25.2124C61.5316 25.0888 61.8587 25.027 62.2273 25.027C62.7579 25.027 63.1755 25.142 63.4802 25.3722C63.7848 25.6001 63.9862 25.9059 64.0842 26.2894Z" fill="white"/>
</g>
<defs>
<clipPath id="clip0_106_4">
<rect width="70" height="30" fill="white"/>
</clipPath>
</defs>
</svg>
