<svg width="79" height="79" viewBox="0 0 79 79" fill="none" xmlns="http://www.w3.org/2000/svg">
<circle cx="39.2476" cy="39.0347" r="39.0347" fill="#E343CA"/>
<path d="M45.8491 24.0976H49.5991V43.3359C49.5991 45.4713 49.1239 47.2486 48.1733 48.6679C47.2228 50.0872 45.9598 51.1549 44.3843 51.871C42.8218 52.5742 41.1226 52.9257 39.2866 52.9257C37.3595 52.9257 35.6147 52.5742 34.0522 51.871C32.5028 51.1549 31.2723 50.0872 30.3608 48.6679C29.4624 47.2486 29.0132 45.4713 29.0132 43.3359V24.0976H32.7437V43.3359C32.7437 44.8203 33.0171 46.0442 33.564 47.0078C34.1108 47.9713 34.8726 48.6874 35.8491 49.1562C36.8387 49.6249 37.9845 49.8593 39.2866 49.8593C40.6017 49.8593 41.7476 49.6249 42.7241 49.1562C43.7137 48.6874 44.4819 47.9713 45.0288 47.0078C45.5757 46.0442 45.8491 44.8203 45.8491 43.3359V24.0976Z" fill="white"/>
</svg>
